<svg width="86" height="86" viewBox="0 0 86 86" fill="none" xmlns="http://www.w3.org/2000/svg">
<path fill-rule="evenodd" clip-rule="evenodd" d="M43 86C66.7482 86 86 66.7482 86 43C86 19.2518 66.7482 0 43 0C19.2518 0 0 19.2518 0 43C0 66.7482 19.2518 86 43 86ZM43 74.9032C60.6197 74.9032 74.9032 60.6197 74.9032 43C74.9032 25.3803 60.6197 11.0968 43 11.0968C25.3803 11.0968 11.0968 25.3803 11.0968 43C11.0968 60.6197 25.3803 74.9032 43 74.9032Z" fill="#F29C1F"/>
<path fill-rule="evenodd" clip-rule="evenodd" d="M51.2214 0.785073C48.5603 0.269853 45.8116 0 43 0C19.2518 0 0 19.2518 0 43C0 66.7482 19.2518 86 43 86C66.7482 86 86 66.7482 86 43C86 41.5103 85.9243 40.0383 85.7764 38.5877C82.7936 41.6906 79.0378 44.0449 74.8186 45.3408C73.6202 61.8675 59.8324 74.9032 43 74.9032C25.3803 74.9032 11.0968 60.6197 11.0968 43C11.0968 25.3803 25.3803 11.0968 43 11.0968C43.1709 11.0968 43.3415 11.0981 43.5118 11.1008C45.1737 7.03632 47.848 3.49323 51.2214 0.785073Z" fill="#77DCB8"/>
</svg>
