<svg width="22" height="24" viewBox="0 0 22 24" fill="none" xmlns="http://www.w3.org/2000/svg">
<path d="M20.1715 14.1243L21.9771 4.37433C22.1074 3.67036 21.6714 3 21.0832 3H6.0811L5.73102 0.899531C5.64378 0.375984 5.2684 0 4.83295 0H0.916911C0.410643 0 0.000244141 0.503672 0.000244141 1.125V1.875C0.000244141 2.49633 0.410643 3 0.916911 3H3.58605L6.26914 19.0985C5.62724 19.5516 5.19469 20.401 5.19469 21.375C5.19469 22.8248 6.1523 24 7.33358 24C8.51486 24 9.47247 22.8248 9.47247 21.375C9.47247 20.6403 9.22623 19.9765 8.82988 19.5H16.8372C16.4409 19.9765 16.1947 20.6403 16.1947 21.375C16.1947 22.8248 17.1523 24 18.3336 24C19.5149 24 20.4725 22.8248 20.4725 21.375C20.4725 20.3357 19.9802 19.4376 19.2663 19.0123L19.477 17.8743C19.6074 17.1704 19.1714 16.5 18.5832 16.5H8.3311L8.08112 15H19.2776C19.7056 15 20.0767 14.6365 20.1715 14.1243Z" fill="white"/>
</svg>
