<svg xmlns="http://www.w3.org/2000/svg" viewBox="0 0 411.67 411.09"><defs><style>.cls-1{fill:#d9d9d9;}</style></defs><title>LOGOBetterTogether</title><g id="Camada_2" data-name="Camada 2"><g id="Camada_1-2" data-name="Camada 1"><path class="cls-1" d="M327.92,253.86c-2.19-.92-2.72,1.22-3.5,2.59-2.47,4.33-4.64,8.85-7.4,13-8.46,12.69-17.94,24.45-31.71,31.89-10.85,5.87-21.56,4.14-29.88-4.87a41.34,41.34,0,0,1-8.19-13.57c-6.64-17.42-7.71-35.69-7.88-54-.28-30.49,1.25-60.93,2.89-91.37.22-4,2-3.65,4.76-2.87,12.57,3.54,25.33,5.65,38.45,4.57,12.77-1.05,24.41-4.89,33.75-14.14,1.14-1.12,2.74-2.51,1-4.2s-2.9-.06-4.08,1.12c-6.09,6.05-13.6,9.37-21.81,11.36-16.61,4-32.69.7-48.74-3.42-2.42-.62-2.55-2-2.37-4,.88-10.11,1.92-20.22,2.48-30.36.4-7.26,2.55-14.48.74-21.83-.83-3.33-2.56-5.86-6.12-6.42-3.73-.58-6.44,1.23-8.31,4.33a20.68,20.68,0,0,0-2.72,9.48c-.95,14.12-2,28.23-2.87,42.36-.15,2.38-.78,3.15-3.19,3a57.46,57.46,0,0,0-14.92.88c-15.67,3-27.77,10.72-34,26-.62,1.51-1.63,3.24.71,4.2,2.05.85,2.65-.89,3.16-2.22,7.2-18.74,26.56-25.21,44.46-24.67,2.34.07,3.52.58,3.33,3.47-1,15.63-1,31.3-.91,46.95.15,22.32.48,44.63,3.3,66.82.55,4.27,2.84,8.62,1.64,12.74-5.48,18.88-16.72,33.3-35.15,43.18.47-2.68.78-4.29,1-5.91C198.19,283.15,197,269,189,256c-8.52-13.83-21.9-15.88-34.05-5.28-6.61,5.77-11.45,12.91-15.68,20.52s-7.85,15.46-11.8,24.29c-.54-2.44-.9-3.87-1.16-5.32a471.76,471.76,0,0,1-6.43-50,9.26,9.26,0,0,1,2.06-7.24,265.11,265.11,0,0,0,39.83-66.54c8.27-20.21,15.24-40.88,13.51-63.29-.53-7-1.64-13.9-5.26-20.09-5.63-9.64-16.57-12.47-26.24-6.91a40.76,40.76,0,0,0-9.06,7c-11.27,11.65-18.37,25.66-22.27,41.2-9.48,37.76-11.78,76.22-10.13,115a14.56,14.56,0,0,1-4.24,11.51c-8.15,8.8-17.1,16.74-27.32,22.89-12,7.2-24.83,12.5-39.35,9.43-10.85-2.29-18.87-8.22-22.15-19.34a10.52,10.52,0,0,1,5.38-12.56c4.31-2.13,8.26-1.1,11.58,2.44,1.22,1.29,2.45,3.19,4.55,2.26A5.54,5.54,0,0,0,34.44,251a19.18,19.18,0,0,1,3.08-9.26c1-1.57,2.31-3.88,4.5-3.11,1.9.67,2.21,3,2.36,5.07.53,7.37-.76,14.48-2.63,21.55-.66,2.49-1.75,5.6,1.79,6.75s5.59-1.42,6.56-4.46A53.92,53.92,0,0,0,52,259c1-7.31,2.56-14.64-.5-21.91-1.85-4.41-4.91-7-9.78-6.93-6.3.07-9.84,4-12.32,9.23-1.2,2.53-2,4.1-5.71,3.11-4.33-1.15-9.28-1.43-13.47,1.44C-.95,251.52-2.7,262.54,3.7,273.38,14.09,291,33,295.19,50.42,291.3c13-2.89,24-9.39,34.59-17.13,6.52-4.79,11.71-11.05,18-16.64.83,6.64,1.54,12.72,2.36,18.79,1.41,10.55,2.66,21.14,5.5,31.42,1.61,5.84,6.28,9.67,10.49,9.05,5.5-.8,6.75-5.2,7.79-9.73,4.1-17.82,12.47-33.59,23.6-47.89,3.7-4.75,8-10.63,15.1-8.58,7.53,2.19,9.17,9.55,10.39,16.34,2.49,13.78.18,27.14-4.1,40.29-.84,2.59-2.05,3.93-5.08,4.42-8.2,1.34-16.29,3.38-23.62,7.52-6,3.4-11.56,7.39-14.2,14.15s.09,12.11,7,13.88a33.8,33.8,0,0,0,22.91-2.28c14.09-6.45,23.79-17.27,30.06-31.32.78-1.75,1.11-3.65,3.3-4.68,17.65-8.3,29.84-21.83,37.22-39.79,1.57.91,1.44,2.38,1.79,3.62a79.58,79.58,0,0,0,7.94,18.75c13.34,22.88,36.81,20.64,51.17,10.65,16.15-11.23,27.14-26.73,35.83-44.06C329.27,256.5,330.05,254.76,327.92,253.86ZM119.84,159.63c1.43-16.21,2.76-32.47,8.39-48,3.71-10.24,8.53-19.81,16.59-27.44,9.4-8.91,19.22-6.61,23.43,5.66,4.82,14.06,3.37,28.17.08,42.29-8.28,35.45-25.33,66.51-47.43,95.06a16.5,16.5,0,0,1-1.76,1.55A475.3,475.3,0,0,1,119.84,159.63Zm31.79,179.82c-3,2.23-6.19,3.85-10.07,3.77-6.15-.14-8.59-4.32-5.58-9.75a24.62,24.62,0,0,1,7.54-7.86c7.73-5.55,16.68-7.8,26.75-9.78C165.42,325.65,159.63,333.44,151.63,339.45Z"/><path class="cls-1" d="M40.48,312.89c26.33,38.28,60.62,66.38,105.17,80.73A197.27,197.27,0,0,0,399.87,247.07C421.68,145.65,362,46.81,264.75,16.42a198.59,198.59,0,0,0-48-8.32C170.75,5.43,128.8,17.62,92,44.68,38.63,83.87,10.65,137,9.39,203.66c-.05,2.83,0,5.66,0,8.49,0,2.5-.56,4.87-3.64,4.94s-3.47-2.31-3.61-4.83C.88,188.2,3.86,164.62,12,142,39.18,65.83,92.43,18.43,172,3.66,235-8,292,8.45,340.56,50.48c44,38.12,67.33,87,70.77,145.24,5.35,90.55-52.69,178.72-145.42,206C193.79,423,128.48,407.68,71.05,359.14c-13.83-11.69-24.9-25.86-35.48-40.43-.26-.35-.16-1-.23-1.45C35.46,313.92,38.21,313.69,40.48,312.89Z"/><path class="cls-1" d="M40.48,312.89c-.74,2.59-3.46,2.87-5.14,4.37-2.1-2.27-.4-4.14,1-5.46S39.47,311.15,40.48,312.89Z"/></g></g></svg>