<svg width="22" height="22" viewBox="0 0 22 22" fill="none" xmlns="http://www.w3.org/2000/svg">
<path d="M11 0C4.9346 0 0 4.9346 0 11C0 17.0654 4.9346 22 11 22C17.0654 22 22 17.0654 22 11C22 4.9346 17.0654 0 11 0ZM11 4.51C11.2828 4.51 11.5593 4.59387 11.7945 4.751C12.0296 4.90813 12.2129 5.13146 12.3211 5.39276C12.4294 5.65406 12.4577 5.94159 12.4025 6.21898C12.3473 6.49637 12.2112 6.75117 12.0112 6.95116C11.8112 7.15115 11.5564 7.28735 11.279 7.34252C11.0016 7.3977 10.7141 7.36938 10.4528 7.26115C10.1915 7.15291 9.96813 6.96963 9.811 6.73447C9.65387 6.4993 9.57 6.22283 9.57 5.94C9.57 5.56074 9.72066 5.19701 9.98884 4.92884C10.257 4.66066 10.6207 4.51 11 4.51ZM13.64 16.94H8.8C8.56661 16.94 8.34278 16.8473 8.17775 16.6823C8.01271 16.5172 7.92 16.2934 7.92 16.06C7.92 15.8266 8.01271 15.6028 8.17775 15.4377C8.34278 15.2727 8.56661 15.18 8.8 15.18H10.34V10.34H9.46C9.22661 10.34 9.00278 10.2473 8.83775 10.0823C8.67271 9.91722 8.58 9.69339 8.58 9.46C8.58 9.22661 8.67271 9.00278 8.83775 8.83775C9.00278 8.67271 9.22661 8.58 9.46 8.58H11.22C11.4534 8.58 11.6772 8.67271 11.8423 8.83775C12.0073 9.00278 12.1 9.22661 12.1 9.46V15.18H13.64C13.8734 15.18 14.0972 15.2727 14.2623 15.4377C14.4273 15.6028 14.52 15.8266 14.52 16.06C14.52 16.2934 14.4273 16.5172 14.2623 16.6823C14.0972 16.8473 13.8734 16.94 13.64 16.94Z" fill="#FFFEFE"/>
</svg>
